<svg width="20" height="17" xmlns="http://www.w3.org/2000/svg">

 <g>
  <title>background</title>
  <rect fill="none" id="canvas_background" height="402" width="582" y="-1" x="-1"/>
 </g>
 <g>
  <title>Layer 1</title>
  <path id="svg_1" fill="#677185" d="m9.75366,11.4996c-1.50199,0 -2.72032,-1.2176 -2.72032,-2.7203c0,-0.76136 0.31168,-1.44772 0.81572,-1.94219c0.18714,-0.18359 0.19002,-0.48412 0.00643,-0.67126c-0.18359,-0.18714 -0.48412,-0.19002 -0.67126,-0.00643c-0.67834,0.66546 -1.10025,1.593 -1.10025,2.61988c0,2.0272 1.64354,3.6697 3.66968,3.6697c1.02594,0 1.95434,-0.4219 2.61984,-1.1003c0.1836,-0.1871 0.1808,-0.4876 -0.0064,-0.6712c-0.1871,-0.1836 -0.4877,-0.1807 -0.6713,0.0064c-0.4944,0.504 -1.1816,0.8157 -1.94214,0.8157z" clip-rule="evenodd" fill-rule="evenodd"/>
  <path id="svg_2" fill="#677185" d="m2.2277,12.7092c1.5256,1.8735 3.94789,3.7979 7.44404,3.7979c2.37116,0 4.25856,-0.8876 5.70606,-2.0457c0.2025,-0.162 0.2344,-0.4563 0.0712,-0.6573c-0.1632,-0.201 -0.4597,-0.2327 -0.6622,-0.0706c-1.3147,1.0517 -2.9995,1.8386 -5.11506,1.8386c-3.10633,0 -5.28591,-1.6999 -6.71156,-3.4506c-0.71178,-0.8741 -1.22616,-1.7505 -1.56252,-2.40916c-0.1679,-0.32876 -0.29068,-0.60177 -0.37093,-0.79107c-0.01996,-0.0471 -0.03728,-0.08898 -0.052,-0.12523c0.03593,-0.08395 0.08648,-0.19829 0.15193,-0.33766c0.15029,-0.32002 0.37859,-0.77075 0.68822,-1.28774c0.62129,-1.03738 1.55979,-2.32425 2.83767,-3.36127c0.20136,-0.16341 0.23115,-0.45792 0.06653,-0.65781c-0.16461,-0.19988 -0.4613,-0.22946 -0.66266,-0.06604c-1.39188,1.12952 -2.39663,2.5145 -3.05114,3.60733c-0.32826,0.54812 -0.57101,1.02708 -0.73228,1.37049c-0.08069,0.1718 -0.14112,0.30998 -0.1818,0.40628c-0.02034,0.04816 -0.03576,0.08587 -0.0463,0.11211c-0.00527,0.01312 -0.00933,0.02337 -0.01217,0.03063l-0.00337,0.00863l-0.001,0.0026l-0.00033,0.00086l-0.00013,0.00033c-0.00005,0.00013 -0.0001,0.00025 0.4401,0.16636c-0.44362,0.15688 -0.44355,0.15708 -0.44347,0.15731l0.00022,0.00059l0.00061,0.00169l0.00194,0.00534c0.00162,0.00442 0.00389,0.01058 0.00682,0.0184c0.00584,0.01565 0.0143,0.03798 0.02543,0.06656c0.02224,0.05714 0.05514,0.1393 0.09906,0.24289c0.0878,0.20711 0.21982,0.50039 0.39896,0.85118c0.3577,0.7004 0.90629,1.6361 1.67013,2.5741zm-1.7597,-3.91806l-0.44362,0.15688c-0.03756,-0.10465 -0.03634,-0.21915 0.00342,-0.32299l0.4402,0.16611z" clip-rule="evenodd" fill-rule="evenodd"/>
  <path id="svg_3" fill="#677185" d="m15.9835,13.0077c0.1921,0.1702 0.4874,0.154 0.6595,-0.0361c0.9033,-0.9981 1.5515,-2.0375 1.9736,-2.8252c0.2114,-0.39458 0.3672,-0.72801 0.4706,-0.96433c0.0518,-0.11822 0.0906,-0.21229 0.1167,-0.27775c0.0131,-0.03274 0.023,-0.05833 0.0299,-0.07622c0.0034,-0.00895 0.006,-0.01598 0.0079,-0.02101l0.0023,-0.00604l0.0007,-0.00189l0.0002,-0.00065l0.0001,-0.00026c0,-0.00011 0.0001,-0.00021 -0.439,-0.15764c0.4366,-0.16404 0.4365,-0.16423 0.4364,-0.16445l-0.0008,-0.0022l-0.0021,-0.00524c-0.0017,-0.00435 -0.004,-0.01042 -0.0071,-0.01816c-0.0062,-0.01548 -0.0151,-0.03762 -0.0268,-0.06598c-0.0235,-0.05671 -0.0581,-0.13835 -0.1042,-0.24135c-0.092,-0.20592 -0.2298,-0.49769 -0.4151,-0.84675c-0.3701,-0.69701 -0.9327,-1.62822 -1.7027,-2.56173c-1.5356,-1.86146 -3.9424,-3.78368 -7.32656,-3.78368c-1.5263,0 -2.85892,0.39291 -4.00223,0.99699c-0.22752,0.12021 -0.31345,0.40012 -0.19192,0.62519c0.12152,0.22507 0.40448,0.31007 0.632,0.18986c1.02207,-0.54003 2.20468,-0.88802 3.56215,-0.88802c2.98966,0 5.15736,1.69155 6.60286,3.44386c0.7204,0.87336 1.25,1.74904 1.5994,2.40719c0.1744,0.32853 0.3032,0.60141 0.3878,0.79074c0.0215,0.04793 0.04,0.09048 0.0558,0.12719c-0.0197,0.04749 -0.0439,0.10474 -0.0728,0.17074c-0.0951,0.21713 -0.2403,0.52841 -0.4388,0.89886c-0.3978,0.74243 -1.0052,1.71443 -1.8443,2.64163c-0.172,0.1901 -0.1557,0.4822 0.0365,0.6524zm2.8225,-4.36709l0.4366,-0.16404c0.0397,0.10341 0.0406,0.21747 0.0025,0.32147l-0.4391,-0.15743z" clip-rule="evenodd" fill-rule="evenodd"/>
  <path id="svg_4" fill="#677185" d="m12.623,9.73692c0.2429,0.04401 0.4728,-0.1323 0.5137,-0.39381c0.0314,-0.20051 0.0492,-0.40795 0.0492,-0.62185c0,-2.04957 -1.5428,-3.7121 -3.44699,-3.7121c-0.19862,0 -0.39124,0.01918 -0.57743,0.05293c-0.24283,0.04401 -0.40655,0.29169 -0.36567,0.5532c0.04087,0.26151 0.27085,0.43782 0.51368,0.3938c0.14132,-0.02561 0.28432,-0.03961 0.42942,-0.03961c1.41149,0 2.55519,1.23242 2.55519,2.75178c0,0.15626 -0.013,0.31027 -0.0367,0.46245c-0.0409,0.26151 0.1228,0.50919 0.3656,0.55321z" clip-rule="evenodd" fill-rule="evenodd"/>
  <path id="svg_5" fill="#677185" d="m6.08398,8.7793c0,2.0271 1.6426,3.6697 3.66968,3.6697c1.02684,0 1.95444,-0.4219 2.61984,-1.1003c0.1836,-0.1871 0.1808,-0.4876 -0.0064,-0.6712c-0.1871,-0.1836 -0.4877,-0.1807 -0.6713,0.0064c-0.4944,0.504 -1.1808,0.8157 -1.94214,0.8157c-1.50277,0 -2.72032,-1.2175 -2.72032,-2.7203c0,-0.76057 0.31173,-1.44777 0.81572,-1.94219c0.18714,-0.18359 0.19002,-0.48412 0.00643,-0.67126c-0.18359,-0.18714 -0.48412,-0.19002 -0.67126,-0.00643c-0.67839,0.66551 -1.10025,1.59394 -1.10025,2.61988z" clip-rule="evenodd" fill-rule="evenodd"/>
  <path d="m4.258687,3.413127c0,0 0.03861,-0.03861 0.11583,-0.03861c0.03861,0 0.03861,-0.03861 0.03861,-0.03861c0.03861,0 0.127139,-0.011308 0.15444,-0.03861c0.027301,-0.027302 0.031805,-0.057384 0.11583,-0.07722c0.037577,-0.008871 0.026773,-0.017715 0.07722,-0.03861c0.071342,-0.029551 0.11583,-0.03861 0.11583,-0.03861c0.03861,-0.03861 0.127139,-0.049919 0.15444,-0.07722c0.027301,-0.027301 0.127139,-0.049919 0.15444,-0.07722c0.027302,-0.027302 0.127139,-0.011309 0.15444,-0.03861c0.027301,-0.027302 0.03861,-0.07722 0.15444,-0.11583c0,0 0.001033,-0.02974 0.03861,-0.03861c0.084025,-0.019836 0.088529,-0.049919 0.11583,-0.07722c0.027301,-0.027301 -0.027301,-0.049919 0,-0.07722c0.027301,-0.027301 0.11583,-0.07722 0.15444,-0.07722l0,-0.03861" id="svg_6" stroke-width="0" stroke="#677185" fill="none"/>
  <line transform="rotate(1.7390589714050293 5.088802814483598,2.911196947097753) " stroke-linecap="undefined" stroke-linejoin="undefined" id="svg_7" y2="3.528958" x2="4.258687" y1="2.293436" x1="5.918918" stroke="#677185" fill="none"/>
  <line stroke="#677185" transform="rotate(4.851837635040283 15.629404067993155,13.449312210083006) " stroke-linecap="undefined" stroke-linejoin="undefined" id="svg_8" y2="14.220051" x2="15.069061" y1="12.678573" x1="16.189747" fill="none"/>
  <line stroke-linecap="undefined" stroke-linejoin="undefined" id="svg_9" y2="6.424711" x2="7.57915" y1="5.53668" x1="9.084942" stroke="#677185" fill="none"/>
  <line stroke="#677185" transform="rotate(7.037089824676514 12.405405044555684,10.169884681701648) " stroke-linecap="undefined" stroke-linejoin="undefined" id="svg_10" y2="11.055656" x2="12.210608" y1="9.284113" x1="12.600202" fill="none"/>
 </g>
</svg>