<svg width="20" height="17" viewBox="0 0 20 17" fill="none" xmlns="http://www.w3.org/2000/svg">
<path fill-rule="evenodd" clip-rule="evenodd" d="M9.75366 11.4996C8.25167 11.4996 7.03334 10.282 7.03334 8.7793C7.03334 8.01794 7.34502 7.33158 7.84906 6.83711C8.0362 6.65352 8.03908 6.35299 7.85549 6.16585C7.6719 5.97871 7.37137 5.97583 7.18423 6.15942C6.50589 6.82488 6.08398 7.75242 6.08398 8.7793C6.08398 10.8065 7.72752 12.449 9.75366 12.449C10.7796 12.449 11.708 12.0271 12.3735 11.3487C12.5571 11.1616 12.5543 10.8611 12.3671 10.6775C12.18 10.4939 11.8794 10.4968 11.6958 10.6839C11.2014 11.1879 10.5142 11.4996 9.75366 11.4996Z" fill="#677185"/>
<path fill-rule="evenodd" clip-rule="evenodd" d="M2.2277 12.7092C3.7533 14.5827 6.17559 16.5071 9.67174 16.5071C12.0429 16.5071 13.9303 15.6195 15.3778 14.4614C15.5803 14.2994 15.6122 14.0051 15.449 13.8041C15.2858 13.6031 14.9893 13.5714 14.7868 13.7335C13.4721 14.7852 11.7873 15.5721 9.67174 15.5721C6.56541 15.5721 4.38583 13.8722 2.96018 12.1215C2.2484 11.2474 1.73402 10.371 1.39766 9.71234C1.22976 9.38358 1.10698 9.11057 1.02673 8.92127C1.00677 8.87417 0.989445 8.83229 0.974729 8.79604C1.01066 8.71209 1.06121 8.59775 1.12666 8.45838C1.27695 8.13836 1.50525 7.68763 1.81488 7.17064C2.43617 6.13326 3.37467 4.84639 4.65255 3.80937C4.85391 3.64596 4.8837 3.35145 4.71908 3.15156C4.55447 2.95168 4.25778 2.9221 4.05642 3.08552C2.66454 4.21504 1.65979 5.60002 1.00528 6.69285C0.677017 7.24097 0.434274 7.71993 0.273001 8.06334C0.192314 8.23514 0.131877 8.37332 0.0911995 8.46962C0.070857 8.51778 0.0554445 8.55549 0.0449015 8.58173C0.0396297 8.59485 0.0355742 8.6051 0.0327276 8.61236L0.0293628 8.62099L0.0283584 8.62359L0.0280253 8.62445L0.027901 8.62478C0.0278505 8.62491 0.0278048 8.62503 0.468003 8.79114C0.024379 8.94802 0.024451 8.94822 0.0245329 8.94845L0.0247472 8.94904L0.0253568 8.95073L0.0273026 8.95607C0.0289233 8.96049 0.0311923 8.96665 0.0341151 8.97447C0.0399603 8.99012 0.0484224 9.01245 0.0595453 9.04103C0.0817884 9.09817 0.114691 9.18033 0.158608 9.28392C0.246407 9.49103 0.378434 9.78431 0.557571 10.1351C0.915272 10.8355 1.46386 11.7712 2.2277 12.7092ZM0.468003 8.79114L0.024379 8.94802C-0.013176 8.84337 -0.0119615 8.72887 0.0278048 8.62503L0.468003 8.79114Z" fill="#677185"/>
<path fill-rule="evenodd" clip-rule="evenodd" d="M15.9835 13.0077C16.1756 13.1779 16.4709 13.1617 16.643 12.9716C17.5463 11.9735 18.1945 10.9341 18.6166 10.1464C18.828 9.75182 18.9838 9.41839 19.0872 9.18207C19.139 9.06385 19.1778 8.96978 19.2039 8.90432C19.217 8.87158 19.2269 8.84599 19.2338 8.8281C19.2372 8.81915 19.2398 8.81212 19.2417 8.80709L19.244 8.80105L19.2447 8.79916L19.2449 8.79851L19.245 8.79825C19.245 8.79814 19.2451 8.79804 18.806 8.64061C19.2426 8.47657 19.2425 8.47638 19.2424 8.47616L19.2416 8.47396L19.2395 8.46872C19.2378 8.46437 19.2355 8.4583 19.2324 8.45056C19.2262 8.43508 19.2173 8.41294 19.2056 8.38458C19.1821 8.32787 19.1475 8.24623 19.1014 8.14323C19.0094 7.93731 18.8716 7.64554 18.6863 7.29648C18.3162 6.59947 17.7536 5.66826 16.9836 4.73475C15.448 2.87329 13.0412 0.951071 9.65704 0.951071C8.13074 0.951071 6.79812 1.34398 5.65481 1.94806C5.42729 2.06827 5.34136 2.34818 5.46289 2.57325C5.58441 2.79832 5.86737 2.88332 6.09489 2.76311C7.11696 2.22308 8.29957 1.87509 9.65704 1.87509C12.6467 1.87509 14.8144 3.56664 16.2599 5.31895C16.9803 6.19231 17.5099 7.06799 17.8593 7.72614C18.0337 8.05467 18.1625 8.32755 18.2471 8.51688C18.2686 8.56481 18.2871 8.60736 18.3029 8.64407C18.2832 8.69156 18.259 8.74881 18.2301 8.81481C18.135 9.03194 17.9898 9.34322 17.7913 9.71367C17.3935 10.4561 16.7861 11.4281 15.947 12.3553C15.775 12.5454 15.7913 12.8375 15.9835 13.0077ZM18.806 8.64061L19.2426 8.47657C19.2823 8.57998 19.2832 8.69404 19.2451 8.79804L18.806 8.64061Z" fill="#677185"/>
<path fill-rule="evenodd" clip-rule="evenodd" d="M12.623 9.73692C12.8659 9.78093 13.0958 9.60462 13.1367 9.34311C13.1681 9.1426 13.1859 8.93516 13.1859 8.72126C13.1859 6.67169 11.6431 5.00916 9.73891 5.00916C9.54029 5.00916 9.34767 5.02834 9.16148 5.06209C8.91865 5.1061 8.75493 5.35378 8.79581 5.61529C8.83668 5.8768 9.06666 6.05311 9.30949 6.00909C9.45081 5.98348 9.59381 5.96948 9.73891 5.96948C11.1504 5.96948 12.2941 7.2019 12.2941 8.72126C12.2941 8.87752 12.2811 9.03153 12.2574 9.18371C12.2165 9.44522 12.3802 9.6929 12.623 9.73692Z" fill="#677185"/>
<path fill-rule="evenodd" clip-rule="evenodd" d="M6.08398 8.7793C6.08398 10.8064 7.72658 12.449 9.75366 12.449C10.7805 12.449 11.7081 12.0271 12.3735 11.3487C12.5571 11.1616 12.5543 10.8611 12.3671 10.6775C12.18 10.4939 11.8794 10.4968 11.6958 10.6839C11.2014 11.1879 10.515 11.4996 9.75366 11.4996C8.25089 11.4996 7.03334 10.2821 7.03334 8.7793C7.03334 8.01873 7.34507 7.33153 7.84906 6.83711C8.0362 6.65352 8.03908 6.35299 7.85549 6.16585C7.6719 5.97871 7.37137 5.97583 7.18423 6.15942C6.50584 6.82493 6.08398 7.75336 6.08398 8.7793Z" fill="#677185"/>
<path fill-rule="evenodd" clip-rule="evenodd" d="M17.7851 16.7101C17.9657 16.5295 17.9657 16.2368 17.7851 16.0563L2.47714 0.748299C2.29661 0.567768 2.00391 0.567768 1.82339 0.748299C1.64286 0.928827 1.64286 1.22152 1.82339 1.40205L17.1314 16.7101C17.3119 16.8906 17.6046 16.8906 17.7851 16.7101Z" fill="#677185"/>
</svg>
